<?xml version="1.0" standalone="no"?><svg xmlns="http://www.w3.org/2000/svg" viewBox="0 0 1440 320"><path fill="#B1AEEA" fill-opacity="0.5" d="M0,192L34.3,197.3C68.6,203,137,213,206,202.7C274.3,192,343,160,411,160C480,160,549,192,617,213.3C685.7,235,754,245,823,250.7C891.4,256,960,256,1029,229.3C1097.1,203,1166,149,1234,138.7C1302.9,128,1371,160,1406,176L1440,192L1440,0L1405.7,0C1371.4,0,1303,0,1234,0C1165.7,0,1097,0,1029,0C960,0,891,0,823,0C754.3,0,686,0,617,0C548.6,0,480,0,411,0C342.9,0,274,0,206,0C137.1,0,69,0,34,0L0,0Z"></path></svg>